PathFileType	4	(X/Y/Z)	/Users/visionmauri/Downloads/Videos/OAW01-top_Sports2D/OAW01-top_Sports2D_px_person00.trc
DataRate	CameraRate	NumFrames	NumMarkers	Units	OrigDataRate	OrigDataStartFrame	OrigNumFrames
26.0	26.0	6	22	m	26.0	1017	2035
Frame#	Time	Hip			RHip			RKnee			RAnkle			RBigToe			RSmallToe			RHeel			LHip			LKnee			LAnkle			LBigToe			LSmallToe			LHeel			Neck			Head			Nose			RShoulder			RElbow			RWrist			LShoulder			LElbow			LWrist			
		X1	Y1	Z1	X2	Y2	Z2	X3	Y3	Z3	X4	Y4	Z4	X5	Y5	Z5	X6	Y6	Z6	X7	Y7	Z7	X8	Y8	Z8	X9	Y9	Z9	X10	Y10	Z10	X11	Y11	Z11	X12	Y12	Z12	X13	Y13	Z13	X14	Y14	Z14	X15	Y15	Z15	X16	Y16	Z16	X17	Y17	Z17	X18	Y18	Z18	X19	Y19	Z19	X20	Y20	Z20	X21	Y21	Z21	X22	Y22	Z22
1017	39.13461538461539	509.9787231619233	487.630099115046	0.0	495.9754766954309	489.3974521695186	0.0	498.59872157581464	550.0934123599476	0.0	498.54210695265925	605.7574807468702	0.0	503.6444101830691	623.477734990804	0.0	495.6561655025414	623.2096870320624	0.0	497.84269013084133	613.4833707924095	0.0	523.2245267521482	488.7635939840305	0.0	520.5862172887128	548.4176223420931	0.0	521.9341571381261	597.8282393105864	0.0	518.2559737703519	619.5443717848259	0.0	527.3020051247822	617.8118578992066	0.0	521.5936854100443	603.3270793031594	0.0	510.913217906019	413.5656271993208	0.0	512.9709072842243	371.01347474674094	0.0	513.3775908497157	402.43770454589907	0.0	485.9064594063425	420.4123666779335	0.0	476.2875858933894	462.273748614004	0.0	472.509360344526	496.484828692958	0.0	537.0961383168667	419.9543379058639	0.0	542.3420510648835	463.0266524747321	0.0	544.4767160305057	500.30540087326426	0.0
1018	39.17309583238787	510.0990686994674	488.91390476824614	0.0	496.1493895715487	490.44898602798025	0.0	498.54587914712505	549.9512250140909	0.0	498.3227749986925	605.7715154581679	0.0	503.04324133734525	623.1190120092753	0.0	495.3814598655191	623.1134088279846	0.0	497.71626334901396	613.2342786568438	0.0	523.4269104175356	489.6355613416333	0.0	521.2595042279377	548.7312129871146	0.0	522.3917682976917	603.9792215448211	0.0	519.3039393394439	624.2653525481492	0.0	528.7845119503196	622.6063908887319	0.0	521.826181958798	610.4678856943607	0.0	510.86394107700755	414.16813543196764	0.0	513.561422352339	371.4795186867924	0.0	513.3008727810575	401.61781033587573	0.0	485.15301561218496	421.254316952199	0.0	475.86444787135787	463.42351359264154	0.0	472.5592207101738	497.94543782769455	0.0	537.3472106304114	420.4503723933188	0.0	542.6025189726663	463.80683418853266	0.0	544.6753114718132	500.32520144984124	0.0
1019	39.21157628016036	510.27173099167504	490.71244702813726	0.0	496.3521676819753	491.9537091627933	0.0	498.58917266252564	551.606905977896	0.0	498.361322126044	606.467190264919	0.0	502.48028403124295	623.4653065048409	0.0	494.6200431626954	623.0884179416258	0.0	497.79201275614	613.4615454952972	0.0	523.9500697117933	490.67871960109966	0.0	522.3525911069687	550.67182954004	0.0	523.3965175765728	610.5097803059805	0.0	520.5758153251162	629.2008137052362	0.0	530.1720794381209	627.7510616756616	0.0	522.3543695407825	617.5792392160871	0.0	510.78122960407046	415.4150897557456	0.0	513.6195304005929	371.1180345130718	0.0	513.2048653143121	401.79064213211916	0.0	484.29104633879683	422.56760219924945	0.0	475.93130516129213	465.0948561732177	0.0	472.9778092239187	499.96608803678026	0.0	537.6959340447405	421.28069115618774	0.0	542.7534370195133	464.94815221031416	0.0	544.9377267090522	500.7857826741474	0.0
1020	39.25005672793284	510.6743322041361	491.99966051414253	0.0	496.63941934460127	493.4038628228477	0.0	498.8485396077288	554.3268650553201	0.0	498.67690640987774	607.8006774375273	0.0	502.1586974849768	624.1740964797641	0.0	493.93834096840436	623.1101728600815	0.0	498.090353553075	614.2902705674408	0.0	524.527227714726	491.83356758463674	0.0	523.4040766539898	553.7323732556863	0.0	524.67228031563	615.3660526120618	0.0	521.8205745147744	632.8724169591508	0.0	531.020474313703	631.7218020791927	0.0	523.1259605149098	622.4961258529287	0.0	510.8494503735012	416.80675099592	0.0	513.8697676680857	370.2042141248698	0.0	513.8404903780098	402.4292682322685	0.0	484.139963762903	423.3644071197683	0.0	476.98194136682457	465.9625138024674	0.0	474.1172882264127	501.0474154168432	0.0	538.0356266996369	422.3250443827865	0.0	542.6742118549653	465.49800366370295	0.0	544.8191766193502	501.22124402376846	0.0
1021	39.28853717570532	511.21230030300785	493.14981363993184	0.0	497.09028026688446	495.12169321410266	0.0	499.1840730185253	555.9907773950042	0.0	498.83629314942584	608.8431808789935	0.0	502.2487297238427	624.510878444018	0.0	493.8777336061647	623.1465668168527	0.0	498.2873712787251	615.1621684076389	0.0	524.95263105956	493.8453063822098	0.0	523.8669949385153	556.0796013325013	0.0	525.4805363287566	617.8023226683225	0.0	522.4327664729325	634.5704124584475	0.0	531.164922472793	633.6504142035856	0.0	523.6926540435419	624.8794377718154	0.0	511.3625394067025	417.4040058678149	0.0	514.5866259170558	370.8327103274557	0.0	514.9666061687019	402.16755068042977	0.0	484.7865821123724	423.61051356315306	0.0	478.27413216680907	466.3913974342451	0.0	475.5929449014414	501.4986607489528	0.0	538.467208711223	423.49111830679084	0.0	542.8336676401598	465.8727250626866	0.0	544.5256829011583	501.93783985298694	0.0
1022	39.32701762347781	511.9445112076948	495.1468574324444	0.0	497.87900726030364	497.3488322119553	0.0	499.4785616506795	556.6351883808921	0.0	498.74152723253775	608.6649551950977	0.0	502.7373224790484	624.4338215169537	0.0	494.1604936665128	623.0588537256333	0.0	498.15442613510277	614.9649378125048	0.0	525.547349485801	496.5143593828918	0.0	523.9839495915058	557.4287282364276	0.0	525.5125626359801	619.1971633964787	0.0	522.3140992426589	635.6836903223251	0.0	530.9832129170929	634.6801789843151	0.0	523.8226317845538	626.3688542072832	0.0	512.5268029795002	417.646192034713	0.0	515.5198132511509	373.1637682574799	0.0	516.0451593880912	401.85192836580285	0.0	485.9333529559525	424.2092881999854	0.0	479.1045628628529	467.61497657885025	0.0	477.04012571357964	502.70606119228205	0.0	539.3749966681677	424.80025386980134	0.0	543.5453518895555	467.23132220608426	0.0	544.8465021256521	503.80308248823707	0.0
